<svg xmlns="http://www.w3.org/2000/svg" xmlns:xlink="http://www.w3.org/1999/xlink" viewBox="0 0 424.91 534.24"><defs><style>.cls-1,.cls-16,.cls-9{fill:none;}.cls-1,.cls-12,.cls-13,.cls-14,.cls-17,.cls-24,.cls-25,.cls-8,.cls-9{stroke:#000;}.cls-1,.cls-12,.cls-13,.cls-14,.cls-15,.cls-17,.cls-24,.cls-25,.cls-8,.cls-9{stroke-miterlimit:10;}.cls-2{fill:url(#Dégradé_sans_nom_554);}.cls-3{fill:url(#Dégradé_sans_nom_554-2);}.cls-4{fill:url(#Dégradé_sans_nom_554-3);}.cls-5{fill:url(#Dégradé_sans_nom_554-4);}.cls-6{fill:url(#Dégradé_sans_nom_554-5);}.cls-7{fill:url(#Dégradé_sans_nom_554-6);}.cls-8{fill:url(#Nouveau_Rose);}.cls-14,.cls-24,.cls-9{stroke-linecap:round;}.cls-10{fill:url(#Dégradé_sans_nom_520);}.cls-11{fill:url(#VERT);}.cls-12{fill:#fff;}.cls-13{fill:#303;}.cls-14,.cls-15{fill:#ff0072;}.cls-14{stroke-width:0.5px;}.cls-15{stroke:#ff0072;}.cls-17{fill:#f9c;}.cls-17,.cls-24{stroke-width:0.75px;}.cls-18{fill:url(#Dégradé_sans_nom_554-7);}.cls-19{fill:url(#Dégradé_sans_nom_554-8);}.cls-20{fill:url(#Dégradé_sans_nom_554-9);}.cls-21{fill:url(#Dégradé_sans_nom_554-10);}.cls-22{fill:url(#Dégradé_sans_nom_554-11);}.cls-23{fill:url(#Dégradé_sans_nom_554-12);}.cls-24{fill:url(#Dégradé_sans_nom_620);}.cls-25{fill:url(#Dégradé_sans_nom_554-13);}</style><linearGradient id="Dégradé_sans_nom_554" x1="378.51" y1="146.16" x2="415.02" y2="146.16" gradientUnits="userSpaceOnUse"><stop offset="0" stop-color="#d1005a" stop-opacity="0.99"/><stop offset="0.18" stop-color="#d2035d" stop-opacity="0.99"/><stop offset="0.33" stop-color="#d40d65" stop-opacity="0.99"/><stop offset="0.46" stop-color="#d81f72" stop-opacity="0.99"/><stop offset="0.59" stop-color="#de3786" stop-opacity="0.99"/><stop offset="0.71" stop-color="#e6569f" stop-opacity="0.99"/><stop offset="0.83" stop-color="#ef7cbd"/><stop offset="0.95" stop-color="#faa9e1"/><stop offset="1" stop-color="#ffbff2"/></linearGradient><linearGradient id="Dégradé_sans_nom_554-2" x1="377.84" y1="176.29" x2="420.08" y2="176.29" xlink:href="#Dégradé_sans_nom_554"/><linearGradient id="Dégradé_sans_nom_554-3" x1="356.72" y1="168.24" x2="398.96" y2="168.24" xlink:href="#Dégradé_sans_nom_554"/><linearGradient id="Dégradé_sans_nom_554-4" x1="313.18" y1="208.18" x2="361.97" y2="208.18" gradientTransform="translate(59.69 -74.59) rotate(13.62)" xlink:href="#Dégradé_sans_nom_554"/><linearGradient id="Dégradé_sans_nom_554-5" x1="338.61" y1="239.98" x2="385.27" y2="239.98" gradientTransform="matrix(0.59, 0.81, -0.81, 0.59, 377.89, -209.82)" xlink:href="#Dégradé_sans_nom_554"/><linearGradient id="Dégradé_sans_nom_554-6" x1="341.96" y1="206.96" x2="390.76" y2="206.96" gradientTransform="matrix(0.88, 0.47, -0.47, 0.88, 144.06, -145.44)" xlink:href="#Dégradé_sans_nom_554"/><radialGradient id="Nouveau_Rose" cx="220.85" cy="290.09" r="217.61" gradientUnits="userSpaceOnUse"><stop offset="0.08" stop-color="#ffbff2"/><stop offset="0.18" stop-color="#f9b0e6"/><stop offset="0.39" stop-color="#e889c7"/><stop offset="0.68" stop-color="#ce4994" stop-opacity="0.99"/><stop offset="0.97" stop-color="#b0005a" stop-opacity="0.99"/></radialGradient><radialGradient id="Dégradé_sans_nom_520" cx="149.45" cy="172.49" fx="106.97532822544102" r="42.85" gradientTransform="translate(-21.27 16.45) rotate(-4.31)" gradientUnits="userSpaceOnUse"><stop offset="0" stop-color="#f6ff00"/><stop offset="0.18" stop-color="#f5fc00"/><stop offset="0.34" stop-color="#f3f100"/><stop offset="0.49" stop-color="#efe000"/><stop offset="0.63" stop-color="#eac700"/><stop offset="0.76" stop-color="#e3a700"/><stop offset="0.89" stop-color="#da8000"/><stop offset="0.97" stop-color="#d46400"/></radialGradient><radialGradient id="VERT" cx="135.77" cy="209.55" r="191.41" gradientTransform="translate(-21.27 16.45) rotate(-4.31)" gradientUnits="userSpaceOnUse"><stop offset="0.08" stop-color="#fff"/><stop offset="0.27" stop-color="#f0f0f0"/><stop offset="0.64" stop-color="#cacaca" stop-opacity="0.99"/><stop offset="0.97" stop-color="#a3a3a3" stop-opacity="0.99"/></radialGradient><linearGradient id="Dégradé_sans_nom_554-7" x1="60.44" y1="41.47" x2="91.3" y2="41.47" xlink:href="#Dégradé_sans_nom_554"/><linearGradient id="Dégradé_sans_nom_554-8" x1="72.08" y1="60.5" x2="120.88" y2="60.5" xlink:href="#Dégradé_sans_nom_554"/><linearGradient id="Dégradé_sans_nom_554-9" x1="104.22" y1="48.81" x2="146.46" y2="48.81" xlink:href="#Dégradé_sans_nom_554"/><linearGradient id="Dégradé_sans_nom_554-10" x1="88.69" y1="330.14" x2="115.82" y2="330.14" gradientTransform="translate(-60.66 27.19) rotate(-10.02)" xlink:href="#Dégradé_sans_nom_554"/><linearGradient id="Dégradé_sans_nom_554-11" x1="103.21" y1="346.36" x2="142.67" y2="346.36" gradientTransform="translate(-60.66 27.19) rotate(-10.02)" xlink:href="#Dégradé_sans_nom_554"/><linearGradient id="Dégradé_sans_nom_554-12" x1="129.44" y1="340.5" x2="178.42" y2="340.5" gradientTransform="translate(-60.66 27.19) rotate(-10.02)" xlink:href="#Dégradé_sans_nom_554"/><linearGradient id="Dégradé_sans_nom_620" x1="283.54" y1="46.96" x2="283.54" y2="46.96" gradientUnits="userSpaceOnUse"><stop offset="0.08" stop-color="#ff1932"/><stop offset="0.16" stop-color="#ff2134"/><stop offset="0.29" stop-color="#ff373a"/><stop offset="0.45" stop-color="#fe5c43"/><stop offset="0.63" stop-color="#fe8e4f" stop-opacity="0.99"/><stop offset="0.83" stop-color="#fdce5f" stop-opacity="0.99"/><stop offset="0.97" stop-color="#fdfe6b" stop-opacity="0.99"/></linearGradient><linearGradient id="Dégradé_sans_nom_554-13" x1="424.2" y1="103.46" x2="424.2" y2="103.46" xlink:href="#Dégradé_sans_nom_554"/></defs><title>Fichier 7</title><g id="Calque_2" data-name="Calque 2"><g id="Ordinateur"><path class="cls-1" d="M235.83,61.41"/></g><g id="Calque_3" data-name="Calque 3"><path class="cls-2" d="M386.2,199.41c-23.65-20.79,14-40.2,22.21-106.52,4.79,21.33,12,90.08.21,76.26C388.4,145.53,386.82,200.07,386.2,199.41Z"/><path d="M386.17,199.44a27.44,27.44,0,0,1-4.76-5.31,17.21,17.21,0,0,1-2.7-6.58,20.45,20.45,0,0,1,.12-7.13,41,41,0,0,1,1.95-6.88c1.65-4.48,3.72-8.78,5.76-13.08s4.11-8.59,6-12.94a196.6,196.6,0,0,0,9.9-26.74,181.09,181.09,0,0,0,5.62-27.94l.22-1.82.4,1.79c1.22,5.51,2.1,11.08,2.92,16.65s1.5,11.17,2.07,16.77,1,11.22,1.36,16.85a164.13,164.13,0,0,1,.21,16.92,35.44,35.44,0,0,1-1.27,8.42,6.53,6.53,0,0,1-1,2,2.38,2.38,0,0,1-.94.74,1.86,1.86,0,0,1-1.24.06c-1.55-.52-2.34-1.85-3.28-2.83a23.6,23.6,0,0,0-3-2.85,10.27,10.27,0,0,0-3.63-1.89,5.25,5.25,0,0,0-3.92.47,9.07,9.07,0,0,0-2.95,2.83,28.53,28.53,0,0,0-3.44,7.61,74.52,74.52,0,0,0-2,8.18c-.53,2.76-.94,5.54-1.3,8.33l-.49,4.19-.22,2.1-.12,1-.07.52,0,.26,0,.13S386.33,199.44,386.17,199.44Zm.05-.05c.19-1.28.3-2.76.44-4.14l.45-4.2c.33-2.8.72-5.59,1.22-8.36a74.79,74.79,0,0,1,1.92-8.23,28.88,28.88,0,0,1,3.42-7.75,9.49,9.49,0,0,1,3.07-3,5.73,5.73,0,0,1,4.25-.56,10.77,10.77,0,0,1,3.83,1.94A24.15,24.15,0,0,1,408,168c.49.51.94,1.08,1.41,1.55A4,4,0,0,0,411,170.6a1.37,1.37,0,0,0,1.51-.6,5.93,5.93,0,0,0,.87-1.78,34.88,34.88,0,0,0,1.16-8.25,166.19,166.19,0,0,0-.21-16.83c-.31-5.61-.78-11.22-1.35-16.81s-1.23-11.18-2-16.75S409.29,98.45,408.1,93l.62,0a182.72,182.72,0,0,1-5.75,28,197,197,0,0,1-10,26.76c-2,4.34-4.06,8.62-6.15,12.9s-4.17,8.56-5.85,13-2.91,9.2-2.11,13.92a17.11,17.11,0,0,0,2.67,6.55A27.36,27.36,0,0,0,386.22,199.39Z"/><path class="cls-3" d="M390.85,218c-36-47.46,12.53-56.6,26.74-83.36,5.37,26.07,1.19,46.77-4.33,53.11C392.85,211.15,391.47,218.62,390.85,218Z"/><path d="M390.81,218a95.27,95.27,0,0,1-7-10.56c-1.1-1.81-2-3.76-2.87-5.67l-1.16-3c-.38-1-.62-2-.94-3a28,28,0,0,1,3.94-24.48,60.89,60.89,0,0,1,8.28-9.74c3-3,6.21-5.8,9.36-8.61,6.26-5.61,12.45-11.48,16.44-18.75l1.17-2.13.46,2.36a120.63,120.63,0,0,1,2.37,23.09c-.12,7.73-.86,15.55-3.35,22.94a29,29,0,0,1-2.42,5.32,16,16,0,0,1-1.73,2.38l-1.91,2.16c-2.53,2.9-5,5.81-7.42,8.83s-4.71,6.08-6.91,9.24c-1.09,1.58-2.16,3.18-3.16,4.82q-.76,1.23-1.47,2.48l-.71,1.26-.36.63a3.35,3.35,0,0,1-.2.31.64.64,0,0,1-.14.14A.17.17,0,0,1,390.81,218Zm.08-.06c0,.06.14,0,.21-.12a3.28,3.28,0,0,0,.19-.3l.36-.63.7-1.26q.7-1.26,1.46-2.49c1-1.65,2.05-3.26,3.14-4.85,2.18-3.18,4.48-6.26,6.86-9.29s4.83-6,7.33-8.92a30.33,30.33,0,0,0,3.54-4.53,28.53,28.53,0,0,0,2.31-5.26c2.36-7.33,3-15.1,3-22.77a121.58,121.58,0,0,0-2.49-22.9l.18,0a49.25,49.25,0,0,1-7.53,10.2c-2.89,3.1-6,6-9.19,8.76s-6.37,5.57-9.42,8.49a60.21,60.21,0,0,0-8.32,9.52A27.52,27.52,0,0,0,379,195.7c.31,1,.55,2,.92,3l1.14,3c.9,1.91,1.75,3.85,2.83,5.66A95.17,95.17,0,0,0,390.89,217.92Z"/><path class="cls-4" d="M369.73,209.91c-36-47.46,12.53-56.6,26.74-83.36,5.37,26.07,1.19,46.77-4.33,53.11C371.73,203.1,370.35,210.57,369.73,209.91Z"/><path d="M369.69,209.94a95.27,95.27,0,0,1-7-10.56c-1.1-1.81-2-3.76-2.87-5.67l-1.16-3c-.38-1-.62-2-.94-3a28,28,0,0,1,3.94-24.48,60.89,60.89,0,0,1,8.28-9.74c3-3,6.21-5.8,9.36-8.61,6.26-5.61,12.45-11.48,16.44-18.75l1.17-2.13.46,2.36a120.63,120.63,0,0,1,2.37,23.09c-.12,7.73-.86,15.55-3.35,22.94a29,29,0,0,1-2.42,5.32,16,16,0,0,1-1.73,2.38l-1.91,2.16c-2.53,2.9-5,5.81-7.42,8.83s-4.71,6.08-6.91,9.24c-1.09,1.58-2.16,3.18-3.16,4.82q-.76,1.23-1.47,2.48l-.71,1.26-.36.63a3.35,3.35,0,0,1-.2.31.64.64,0,0,1-.14.14A.17.17,0,0,1,369.69,209.94Zm.08-.06c0,.06.14,0,.21-.12a3.28,3.28,0,0,0,.19-.3l.36-.63.7-1.26q.7-1.26,1.46-2.49c1-1.65,2.05-3.26,3.14-4.85,2.18-3.18,4.48-6.26,6.86-9.29s4.83-6,7.33-8.92a30.33,30.33,0,0,0,3.54-4.53,28.53,28.53,0,0,0,2.31-5.26c2.36-7.33,3-15.1,3-22.77a121.58,121.58,0,0,0-2.49-22.9l.18,0a49.25,49.25,0,0,1-7.53,10.2c-2.89,3.1-6,6-9.19,8.76s-6.37,5.57-9.42,8.49a60.21,60.21,0,0,0-8.32,9.52,27.52,27.52,0,0,0-4.18,24.09c.31,1,.55,2,.92,3l1.14,3c.9,1.91,1.75,3.85,2.83,5.66A95.17,95.17,0,0,0,369.77,209.87Z"/><path class="cls-5" d="M329.27,264.63c-49.85-61.22,14-75.59,31.57-111.71,8.32,34.3,3.74,61.92-3.27,70.57C331.62,255.51,330.13,265.47,329.27,264.63Z"/><path d="M329.24,264.66A126.33,126.33,0,0,1,319.4,251c-1.54-2.35-2.78-4.88-4.08-7.37l-1.68-3.87c-.55-1.3-.93-2.66-1.4-4a37,37,0,0,1,4.26-32.54,80.49,80.49,0,0,1,10.58-13.18c3.9-4.06,8-7.9,12-11.79s8-7.82,11.62-12.05a69.94,69.94,0,0,0,9.34-13.67l1.07-2.11.53,2.29a162.08,162.08,0,0,1,4.17,30.43c.27,10.23-.28,20.6-3.17,30.5a38.34,38.34,0,0,1-2.91,7.16,21.06,21.06,0,0,1-2.15,3.24l-2.41,3q-4.8,6-9.38,12.08c-3,4.1-6,8.26-8.74,12.55-1.38,2.14-2.72,4.31-4,6.53q-.95,1.66-1.83,3.35l-.88,1.7-.45.85a4.47,4.47,0,0,1-.25.41.84.84,0,0,1-.17.19A.2.2,0,0,1,329.24,264.66Zm.07-.07c.08.09.21-.05.29-.18a4.37,4.37,0,0,0,.25-.4l.44-.85.87-1.71q.88-1.7,1.81-3.37c1.25-2.23,2.57-4.41,3.94-6.57,2.74-4.31,5.65-8.5,8.66-12.62s6.12-8.17,9.3-12.16a40.22,40.22,0,0,0,4.48-6.17,37.84,37.84,0,0,0,2.82-7.08c2.79-9.83,3.27-20.15,2.94-30.32a161.23,161.23,0,0,0-4.36-30.23l.18,0a65.36,65.36,0,0,1-9.5,13.86c-3.68,4.24-7.7,8.16-11.76,12s-8.18,7.67-12.09,11.69a79.85,79.85,0,0,0-10.59,13,36.52,36.52,0,0,0-4.42,32.14c.46,1.32.82,2.68,1.36,4l1.65,3.87c1.28,2.49,2.5,5,4,7.38A126.2,126.2,0,0,0,329.31,264.59Z"/><path class="cls-6" d="M366.41,264.9c2-60.05,29.56-58.46,55.79-88.27,9.83,44.18-22,69.66-21.17,73.08C369.38,259.73,366.49,265.87,366.41,264.9Z"/><path d="M366.36,264.9a130.92,130.92,0,0,1,3.35-27.15,71.8,71.8,0,0,1,4.44-13,56.64,56.64,0,0,1,7.2-11.72c5.75-7.23,13.07-13,20.19-18.59,3.57-2.84,7.09-5.71,10.44-8.76a133.39,133.39,0,0,0,9.56-9.64l1.15-1.28.36,1.67a77.1,77.1,0,0,1,1.78,19.84,69.81,69.81,0,0,1-3.65,19.57,82.32,82.32,0,0,1-8.64,17.88c-1.77,2.8-3.7,5.49-5.7,8.12l-3,3.9c-.5.65-1,1.3-1.47,2-.23.33-.46.67-.65,1a1.91,1.91,0,0,0-.33.92l.06.31-.29.09c-3,.92-6.06,1.88-9.06,2.9s-6,2.13-8.92,3.31-5.85,2.46-8.68,3.89c-1.41.72-2.81,1.47-4.16,2.3-.68.41-1.34.84-2,1.3l-1,.7-.47.36-.25.18a.5.5,0,0,1-.15.07C366.4,265.07,366.35,264.95,366.36,264.9Zm.1,0s0,.05,0,0l.11-.06.24-.17.47-.37,1-.71c.65-.46,1.31-.9,2-1.32,1.35-.84,2.74-1.6,4.16-2.33,2.83-1.45,5.73-2.74,8.67-3.95,5.88-2.41,11.89-4.48,17.94-6.41l0,.08a2.06,2.06,0,0,1,.36-1.21c.2-.36.43-.71.66-1,.47-.68,1-1.34,1.46-2l3-3.93c2-2.63,3.86-5.33,5.6-8.13a81.65,81.65,0,0,0,8.41-17.81,71.07,71.07,0,0,0,3.49-19.36,76.16,76.16,0,0,0-1.84-19.59l.17,0a144.48,144.48,0,0,1-20.19,18.46c-3.58,2.83-7.2,5.61-10.66,8.58a78.82,78.82,0,0,0-9.62,9.69,62,62,0,0,0-11.86,24.39A130.78,130.78,0,0,0,366.46,264.9Z"/><path class="cls-7" d="M344.52,263.73c-32.66-71.88,32.72-69.55,58.91-100-.67,35.29-12.12,60.84-21.09,67.42C349.11,255.5,345.14,264.76,344.52,263.73Z"/><path d="M344.48,263.75a126.32,126.32,0,0,1-6-15.7c-.9-2.67-1.45-5.43-2.08-8.17l-.64-4.17c-.2-1.39-.22-2.81-.34-4.21a37,37,0,0,1,12.39-30.39A80.48,80.48,0,0,1,361.35,191c4.8-2.94,9.75-5.61,14.63-8.35s9.73-5.53,14.3-8.7a69.94,69.94,0,0,0,12.51-10.85l1.58-1.77-.07,2.35a162.08,162.08,0,0,1-3.7,30.49c-2.34,10-5.51,19.85-10.81,28.69a38.34,38.34,0,0,1-4.64,6.18,21.07,21.07,0,0,1-2.9,2.59l-3.09,2.26q-6.16,4.54-12.14,9.3c-4,3.19-7.88,6.47-11.64,9.91-1.88,1.72-3.72,3.48-5.51,5.3q-1.34,1.37-2.63,2.78L346,262.65l-.65.7a4.42,4.42,0,0,1-.35.33.84.84,0,0,1-.21.14A.2.2,0,0,1,344.48,263.75Zm.09,0c.06.1.22,0,.33-.1a4.35,4.35,0,0,0,.34-.33l.64-.71,1.27-1.43q1.28-1.42,2.61-2.8c1.77-1.84,3.61-3.61,5.48-5.35,3.74-3.47,7.63-6.78,11.58-10s8-6.34,12.08-9.4a40.23,40.23,0,0,0,5.9-4.83,37.85,37.85,0,0,0,4.53-6.13c5.2-8.8,8.28-18.66,10.54-28.58a161.23,161.23,0,0,0,3.46-30.35l.17.07a65.36,65.36,0,0,1-12.71,11c-4.64,3.17-9.52,5.94-14.43,8.65s-9.86,5.34-14.66,8.23a79.87,79.87,0,0,0-13.55,9.89,36.52,36.52,0,0,0-12.45,30c.11,1.4.12,2.8.31,4.19l.61,4.16c.61,2.73,1.14,5.49,2,8.16A126.21,126.21,0,0,0,344.57,263.7Z"/><path class="cls-8" d="M355.33,195.66c-26.63,24.83-59,35.43-28.46-4.18-15.59,9.38-45.14,58.11-36.34,95.65,10.29,43.85,17.81,131.63-13.62,157.12-18.1-18.36-36.77-13.27-54.42-7.93-15.38.17-22-16.4-26-25.12s-2-30.6-1.37-40.34c4.79-3,5.93-16.83,5.93-16.83l5.47-.41-6.15-8.56,6.8-.51L197.5,330.9l3.69-4.29s-16.27-7.46-32-16.31c-7.81-10.44-7.35-22.18,10.48-51.6,37.13-4.14,101.55-49.77,101.55-49.77l9.31-.7L272,188.89s17.95-1.35,21.34-14c-15.18-1.86-42.74-21.51-45-34.38S218.6,92,218.6,92l-5-17.67,7.57-1.57-10.29-7.92,10.06-10.62c.23-1.69-43.38-12.16-73.58,1.7C119.46,54,109.95,64,94,71.61c-34.74.28-64.23,21.56-64.23,21.56l8.56,2.7L30.8,106.13l11,3.52L56.22,133s-5.89,4-6.75,29.09c1.38,25-6.41,41.35-15.75,53.84,7,6.55,8.12,7.91,20.72,15.49-3.51,13.3-7.77,16.63-16.13,28.79,15.54,3.37,68.09,5.76,73,6-1,2.26,2.46,30.59-2.31,50.86-22.82-1.43-40.34,10.31-40.34,10.31l7.53,3.44-14.57,9.62s13.65-3,4.23,5.11S55.78,371,64,382.41,87.14,529.76,87.14,529.76l191.33,1.62c8.66-9.34,15.18-19.62,23.83-51.94,48.11-31.37,39.84-70.19,22.18-127s7.06-84,7.06-84c28.5,5.26,62.77,5.76,80.33-33.24-41.25,23.55-24.17-6.67-16.4-25.46C384.31,213.21,333.49,257.33,355.33,195.66ZM108,529.47c-3.33-16.6-3.85-37.35,2.65-61,7.68,13.94,12.79,34.73,14.56,61.1Z"/><path class="cls-9" d="M79.27,92.89c-8.92,9.39-15.2,21.67-23.05,40.07"/><path class="cls-1" d="M68.62,107.33S60.23,99.61,41.7,100"/><path class="cls-1" d="M60.14,124c-11.17-5.17-3.26-22.24-3.26-22.24"/><path class="cls-1" d="M206.56,113c6.91-6.12,13.37-13.38,9.87-28.66"/><path class="cls-9" d="M147.35,55.89c-11.83,9.67-19,35.48-15,46.63a124.23,124.23,0,0,1,13.45-11.76c12-9.2,31-20.86,52.75-23.48,4.4,2.54,6.32,3.46,6.32,15.07"/><path class="cls-10" d="M123,195.66s57.92-2.6,57.64-24.74C180.07,123,112.82,133.06,123,195.66Z"/><path d="M123,195.66a219.41,219.41,0,0,0,22.6-3.73c3.71-.82,7.4-1.76,11-2.91a70.76,70.76,0,0,0,10.45-4.12,29.77,29.77,0,0,0,8.72-6.29,13.57,13.57,0,0,0,2.52-4.3,10.94,10.94,0,0,0,.42-2.39,10.8,10.8,0,0,0,0-1.24l-.1-1.38a36.84,36.84,0,0,0-2-10.68c-.34-.83-.61-1.7-1-2.49l-1.24-2.37-1.5-2.19c-.51-.72-1.16-1.33-1.72-2a21.58,21.58,0,0,0-8.76-5.62A23.76,23.76,0,0,0,152,143a30.06,30.06,0,0,0-18.61,10.14,40.44,40.44,0,0,0-6,9.23c-.42.83-.72,1.71-1.08,2.57l-.53,1.3c-.17.43-.28.89-.42,1.33l-.82,2.69c-.23.91-.39,1.83-.61,2.75A72.25,72.25,0,0,0,123,195.66Zm0,0a64.43,64.43,0,0,1-1.11-23c.15-1,.28-1.93.46-2.89l.7-2.85c.12-.47.22-1,.37-1.42l.48-1.39c.33-.92.6-1.88,1-2.78a41.46,41.46,0,0,1,6-10.21,32.72,32.72,0,0,1,20.5-11.87,27,27,0,0,1,12.19,1.05,25.45,25.45,0,0,1,10.42,6.56c.67.79,1.41,1.53,2,2.37s1.17,1.7,1.72,2.56l1.41,2.73c.45.92.75,1.89,1.12,2.84a20.18,20.18,0,0,1,.87,2.9,23.17,23.17,0,0,1,.65,2.95l.44,3c.11,1,.11,2,.17,3l.07,1.49a15.06,15.06,0,0,1-.09,1.62,14.61,14.61,0,0,1-.66,3.23,17.09,17.09,0,0,1-3.36,5.47,31,31,0,0,1-10,6.77c-7.21,3.24-14.83,4.9-22.43,6.14A155.5,155.5,0,0,1,123,195.66Z"/><path class="cls-11" d="M83.18,202.68c3.7-67.87-32-51.61-33.67.87C65.66,209,77.24,206.89,83.18,202.68Z"/><path d="M83.18,202.68c0-8.65-.31-17.32-1.85-25.74a42.71,42.71,0,0,0-3.82-12,13.8,13.8,0,0,0-3.67-4.56,5.89,5.89,0,0,0-5-1.08,11.09,11.09,0,0,0-4.85,2.9A25,25,0,0,0,60.18,167,52.39,52.39,0,0,0,55,178.45a99.75,99.75,0,0,0-4.31,25.13l-.8-1.15a59.88,59.88,0,0,0,16.68,3.64,35.93,35.93,0,0,0,8.54-.45A23,23,0,0,0,83.18,202.68Zm0,0A21.34,21.34,0,0,1,79.45,205a26.39,26.39,0,0,1-4.15,1.48,35.55,35.55,0,0,1-8.76,1.12,52.69,52.69,0,0,1-8.82-.76,71.31,71.31,0,0,1-8.59-2.13l-.81-.24v-.9a100.42,100.42,0,0,1,1-13.09,78.3,78.3,0,0,1,2.88-12.87,50.7,50.7,0,0,1,5.48-12.14,27.86,27.86,0,0,1,4.31-5.3,13.44,13.44,0,0,1,6.23-3.55,8.54,8.54,0,0,1,3.84,0,9.21,9.21,0,0,1,3.39,1.67,16,16,0,0,1,4.29,5.55,43.43,43.43,0,0,1,3.53,12.81A91.71,91.71,0,0,1,84,189.69C83.94,194,83.65,198.37,83.18,202.68Z"/><path class="cls-12" d="M65.5,165.3c-2.44,6.34-9.07,25.68,4.86,40.13a3.17,3.17,0,0,0,4.92-.65C86.81,170.5,72.72,146.51,65.5,165.3Z"/><path class="cls-1" d="M106.6,168.15"/><path class="cls-13" d="M148.61,141.65c-.06-.78-10.22,31.46,9.88,48.18,11.72-11.43,3.13-51.59,3.51-48.06A24.16,24.16,0,0,0,148.61,141.65Z"/><path d="M93.67,227.29c-2.11-1.07,10.73-11.13,24.45-3.85,11.52,6.11-10.16,20.49-10.16,20.49C99.54,239.28,95.06,233.76,93.67,227.29Z"/><path class="cls-9" d="M111.28,300.52c-1.43,4.69-1.1,47.15-35.43,84.69l9.28-.7L77.49,406.9l8.95-.67-7.79,16,10.28-.77-7,17.58s38.24,8.63,43.88,91"/><path class="cls-1" d="M155.32,322.26s18.78-8.93,30.56-3.09"/><path class="cls-1" d="M107.67,529.93c-7.49-35,4.43-66.41,2.67-62.53"/><path class="cls-1" d="M136.87,376.86c1.32,8.93,5,141.37-2.5,153.29"/><path class="cls-1" d="M195.17,370.85s-28.93,55.49-34.07,159.53"/><path class="cls-9" d="M148.8,235.84c-12.11,26.35-39.77,19.81-40.34,14.74,0,0-15.52,13-26.66-1.17"/><path d="M154.41,218.49c7.37-2,14.83-3.61,22.33-5s15.06-2.57,22.65-3.47a202.46,202.46,0,0,1,22.88-1.34c7.62.13,15.37.63,22.65,3a60.42,60.42,0,0,0-11.25-1.88c-3.79-.33-7.6-.43-11.4-.39A222.49,222.49,0,0,0,199.5,211c-7.57.82-15.11,2-22.62,3.23q-5.64.94-11.25,2C161.87,216.93,158.14,217.7,154.41,218.49Z"/><path d="M155.09,227.56c4.54,0,9.08.07,13.62.13s9.08.32,13.61.61,9.07.6,13.58,1.12c2.26.26,4.53.42,6.78.75l6.76.92A176.55,176.55,0,0,1,236,237.24a100.09,100.09,0,0,1,12.65,5.13,93.46,93.46,0,0,1,11.68,7A97.94,97.94,0,0,0,235.78,238a186.48,186.48,0,0,0-26.49-5.89c-9-1.39-18-2.3-27-3-4.52-.38-9.05-.58-13.58-.89Z"/><path d="M75.87,223a180.43,180.43,0,0,0-19.48.85,167.89,167.89,0,0,0-19.23,3,187.42,187.42,0,0,0-18.82,5l-4.63,1.53-4.59,1.64-4.57,1.71L0,238.56l4.44-2,4.5-1.92,4.56-1.78,4.6-1.66a168.24,168.24,0,0,1,18.86-5.25,152.48,152.48,0,0,1,19.38-2.8A133.21,133.21,0,0,1,75.87,223Z"/><path d="M82.16,234.28a138.12,138.12,0,0,0-18.62,5,152.44,152.44,0,0,0-17.85,7.18l-2.19,1-2.14,1.09c-1.42.74-2.88,1.43-4.27,2.22-2.79,1.59-5.6,3.14-8.29,4.89a169.85,169.85,0,0,0-15.71,11.16l3.67-3.15c1.23-1,2.44-2.11,3.75-3.06l3.88-2.89c1.29-1,2.67-1.81,4-2.72a134.25,134.25,0,0,1,16.88-9.47,139.49,139.49,0,0,1,18-7c3.08-1,6.2-1.79,9.34-2.54A96.25,96.25,0,0,1,82.16,234.28Z"/><path class="cls-14" d="M132.32,103.41s40.8-14.94,60.94-8.17c16.78-6.59,15-25,5.27-28.21-29.8,3.57-64.06,32.46-66.2,36.38"/><path class="cls-15" d="M57.16,102.37c-5,12.81-1.69,18.63,2.71,21,0,0,7.72-15.27,8.09-15.84C65.71,105.05,59.8,102.68,57.16,102.37Z"/><polygon class="cls-16" points="109.75 526.08 124.34 526.08 125.34 534.24 109.31 532.59 108.39 529.01 109.75 526.08"/><path class="cls-16" d="M112,521.27"/><path d="M119.17,150.16A170,170,0,0,1,131.59,137a145.71,145.71,0,0,1,13.82-11.74,84.42,84.42,0,0,1,7.62-5,42.65,42.65,0,0,1,8.31-3.75,18,18,0,0,1,9.07-.74,10.68,10.68,0,0,1,4.14,1.94,11.69,11.69,0,0,1,2.95,3.43,12.43,12.43,0,0,0-3.11-3.22,10.29,10.29,0,0,0-4.08-1.67,17.44,17.44,0,0,0-8.74,1A61.16,61.16,0,0,0,146,126a162.4,162.4,0,0,0-13.89,11.49q-3.35,3-6.57,6.21C123.38,145.84,121.26,148,119.17,150.16Z"/><path d="M81.08,154.1c-1.32-1.31-2.63-2.61-4-3.87s-2.69-2.54-4.07-3.77c-2.77-2.45-5.58-4.85-8.55-7A39.08,39.08,0,0,0,55,134a10.69,10.69,0,0,0-5.3-.66,6.4,6.4,0,0,0-2.5,1c-.36.27-.7.58-1.05.88l-.89,1.06a6.65,6.65,0,0,1,4.34-3.38,11.22,11.22,0,0,1,5.64.41,34.73,34.73,0,0,1,9.87,5.33,81.54,81.54,0,0,1,8.48,7.26A93.74,93.74,0,0,1,81.08,154.1Z"/><path class="cls-17" d="M66.4,158.71c-.27-9.3,2.22-19.22,6.6-29.55q-3.56,15.8.7,29.55"/><path class="cls-17" d="M71.4,206.83c-6.42,11.08.14,14.81,0,23.89-4.8-6.07-11.84-10.92-7.3-23.89"/><path class="cls-18" d="M78.61,78.14C38.85,47.94,75.94,29.6,81.37,4.78c10.22,19.84,11.52,37.5,8.5,43.86C78.69,72.19,79.26,78.54,78.61,78.14Z"/><path d="M78.58,78.18a79.9,79.9,0,0,1-8.08-6.93c-1.3-1.21-2.43-2.59-3.61-3.92L65.29,65.2c-.53-.72-1-1.5-1.45-2.24a25.3,25.3,0,0,1-3.62-10,25.4,25.4,0,0,1,1.21-10.66,51.16,51.16,0,0,1,4.47-9.76c1.77-3.11,3.69-6.1,5.6-9.08,3.79-5.95,7.43-12.08,9-18.82l.55-2.36,1.08,2.15a101,101,0,0,1,7.12,18.14A63.15,63.15,0,0,1,91.7,41.84a24.39,24.39,0,0,1-.77,4.86A13.44,13.44,0,0,1,90.07,49L89,51.19C87.61,54.09,86.23,57,85,60s-2.44,6-3.5,9c-.53,1.52-1,3.06-1.47,4.61q-.33,1.16-.63,2.33l-.29,1.18L79,77.7a2.83,2.83,0,0,1-.1.29.55.55,0,0,1-.08.15A.15.15,0,0,1,78.58,78.18Zm.06-.08s.09-.05.13-.14a2.74,2.74,0,0,0,.09-.28l.15-.59.28-1.18q.28-1.18.61-2.34c.43-1.56.92-3.09,1.44-4.62,1-3.06,2.21-6.07,3.44-9S87.32,54,88.68,51a25.42,25.42,0,0,0,1.83-4.46,23.91,23.91,0,0,0,.68-4.77,62.5,62.5,0,0,0-2.72-19.06A101.93,101.93,0,0,0,81.29,4.82l.18,0a41.27,41.27,0,0,1-3.78,9.94c-1.63,3.16-3.52,6.17-5.44,9.15s-3.89,5.93-5.69,9A50.48,50.48,0,0,0,62,42.44a24.9,24.9,0,0,0-1.36,10.44,24.87,24.87,0,0,0,3.42,10c.48.74.9,1.52,1.43,2.24l1.59,2.13c1.16,1.34,2.28,2.71,3.57,3.93A79.8,79.8,0,0,0,78.64,78.1Z"/><path class="cls-19" d="M100.81,118.49c-62.87-47.75-4.22-76.75,4.36-116,16.17,31.37,18.22,59.3,13.45,69.36C100.94,109.08,101.84,119.11,100.81,118.49Z"/><path d="M100.78,118.53a126.32,126.32,0,0,1-12.77-11c-2.05-1.92-3.85-4.09-5.71-6.2L79.76,98c-.84-1.13-1.53-2.37-2.3-3.55a39.75,39.75,0,0,1-5.58-15.88,39.92,39.92,0,0,1,2.06-16.75,80.49,80.49,0,0,1,7.18-15.3C83.95,41.67,87,37,90,32.24S96,22.75,98.48,17.79a69.94,69.94,0,0,0,5.86-15.48L104.88,0l1.05,2.1a162.08,162.08,0,0,1,11.22,28.59c2.67,9.88,4.58,20.08,4.1,30.39a38.34,38.34,0,0,1-1.14,7.64,21.07,21.07,0,0,1-1.33,3.66l-1.65,3.45q-3.26,6.92-6.27,14c-2,4.7-3.86,9.44-5.54,14.25-.84,2.41-1.63,4.83-2.33,7.28q-.53,1.84-1,3.69l-.45,1.86-.24.93a4.44,4.44,0,0,1-.15.46.84.84,0,0,1-.12.22A.2.2,0,0,1,100.78,118.53Zm.06-.08c.1.06.19-.1.24-.24a4.36,4.36,0,0,0,.14-.45l.23-.93.44-1.86q.45-1.86,1-3.7c.69-2.46,1.46-4.89,2.28-7.31,1.64-4.83,3.49-9.59,5.44-14.31s4-9.38,6.17-14a40.23,40.23,0,0,0,2.9-7.05A37.85,37.85,0,0,0,120.74,61c.4-10.21-1.57-20.36-4.29-30.16A161.23,161.23,0,0,0,105.09,2.54l.18,0a65.36,65.36,0,0,1-6,15.71c-2.58,5-5.56,9.75-8.6,14.46s-6.14,9.38-9,14.21A79.86,79.86,0,0,0,74.48,62a39.41,39.41,0,0,0-2.15,16.52A39.36,39.36,0,0,0,77.75,94.3c.76,1.18,1.43,2.41,2.26,3.54l2.51,3.37c1.83,2.11,3.61,4.29,5.64,6.22A126.2,126.2,0,0,0,100.84,118.45Z"/><path class="cls-20" d="M117.23,90.47C81.26,43,129.75,33.87,144,7.11c5.37,26.07,1.19,46.77-4.33,53.11C119.23,83.66,117.85,91.13,117.23,90.47Z"/><path d="M117.19,90.5a95.27,95.27,0,0,1-7-10.56c-1.1-1.81-2-3.76-2.87-5.67l-1.16-3c-.38-1-.62-2-.94-3a30.11,30.11,0,0,1-.9-12.67,30.2,30.2,0,0,1,4.84-11.81,60.89,60.89,0,0,1,8.28-9.74c3-3,6.21-5.8,9.36-8.61C133,19.84,139.2,14,143.19,6.7l1.17-2.13.46,2.36A120.63,120.63,0,0,1,147.19,30c-.12,7.73-.86,15.55-3.35,22.94a29,29,0,0,1-2.42,5.32,16,16,0,0,1-1.73,2.38l-1.91,2.16c-2.53,2.9-5,5.81-7.42,8.83s-4.71,6.08-6.91,9.24c-1.09,1.58-2.16,3.18-3.16,4.82q-.76,1.23-1.47,2.48l-.71,1.26-.36.63a3.35,3.35,0,0,1-.2.31.64.64,0,0,1-.14.14A.17.17,0,0,1,117.19,90.5Zm.08-.06c0,.06.14,0,.21-.12a3.28,3.28,0,0,0,.19-.3l.36-.63.7-1.26q.7-1.26,1.46-2.49c1-1.65,2.05-3.26,3.14-4.85,2.18-3.18,4.48-6.26,6.86-9.29s4.83-6,7.33-8.92A30.33,30.33,0,0,0,141,58.05a28.53,28.53,0,0,0,2.31-5.26c2.36-7.33,3-15.1,3-22.77a121.58,121.58,0,0,0-2.49-22.9l.18,0a49.25,49.25,0,0,1-7.53,10.2c-2.89,3.1-6,6-9.19,8.76s-6.37,5.57-9.42,8.49a60.21,60.21,0,0,0-8.32,9.52,29.7,29.7,0,0,0-4.91,11.56,29.67,29.67,0,0,0,.73,12.54c.31,1,.55,2,.92,3l1.14,3c.9,1.91,1.75,3.85,2.83,5.66A95.17,95.17,0,0,0,117.27,90.44Z"/><path class="cls-21" d="M107.38,365.09c-35.15-18.06-11.44-22.35-28.8-59.6,14.86,9.5,35,29.69,33.51,35.06C106.63,360.44,107.94,365.31,107.38,365.09Z"/><path d="M107.36,365.14c-2.63-1.34-5.23-2.72-7.75-4.26a47.23,47.23,0,0,1-7.17-5.2,19,19,0,0,1-5.26-7.16,27.57,27.57,0,0,1-1.53-8.8c-.15-3-.24-5.89-.56-8.79a73.83,73.83,0,0,0-1.45-8.61,73.26,73.26,0,0,0-2.51-8.37c-1-2.74-2.16-5.42-3.35-8.09l-1.22-2.73,2.49,1.63a126.29,126.29,0,0,1,14.8,11.51,127.93,127.93,0,0,1,13,13.48c1,1.21,1.94,2.46,2.82,3.76a22.94,22.94,0,0,1,2.32,4.13,6.1,6.1,0,0,1,.52,2.41,3,3,0,0,1-.11.65l-.16.56-.33,1.12q-.64,2.24-1.24,4.49-1.18,4.5-2,9.09c-.28,1.53-.52,3.06-.7,4.6q-.14,1.16-.23,2.31l-.08,1.16,0,.58c0,.1,0,.19,0,.29a.72.72,0,0,1,0,.15A.13.13,0,0,1,107.36,365.14Zm0-.09s.06-.08.07-.17,0-.19,0-.29l0-.58.07-1.16q.08-1.16.21-2.32c.17-1.54.4-3.08.67-4.61.53-3.06,1.19-6.1,1.92-9.12q.55-2.27,1.15-4.52l.3-1.13a5,5,0,0,0,.24-1.12,5.69,5.69,0,0,0-.53-2.22,34.75,34.75,0,0,0-5.18-7.68,128.4,128.4,0,0,0-13.11-13.21,125.46,125.46,0,0,0-14.75-11.34l.14-.12a82.14,82.14,0,0,1,5.84,16.67,65.07,65.07,0,0,1,1.34,8.74c.26,2.94.29,5.89.39,8.83a27.08,27.08,0,0,0,1.33,8.67,18.56,18.56,0,0,0,5,7.12,47,47,0,0,0,7.09,5.23C102.2,362.29,104.79,363.7,107.4,365Z"/><path class="cls-22" d="M130.24,393.48c-55.57-28.55-7.69-63.72-6.4-95.49,16.92,22.22,16.19,48.19,13.86,56.69C129,386.13,131.13,393.82,130.24,393.48Z"/><path d="M130.22,393.53a83.6,83.6,0,0,1-11.86-7.22,44.27,44.27,0,0,1-9.85-9.77,28.53,28.53,0,0,1-5.19-12.86,37.46,37.46,0,0,1,1.06-13.92A87.69,87.69,0,0,1,109,336.59c1.83-4.27,3.84-8.45,5.8-12.63a135.25,135.25,0,0,0,5.33-12.72A49.07,49.07,0,0,0,123,298l.13-2.42,1.44,1.92A73.58,73.58,0,0,1,136,319.8a77,77,0,0,1,3.4,24.8,56.23,56.23,0,0,1-.54,6.26c-.16,1-.35,2.07-.59,3.09s-.57,2-.84,3c-1.12,4-2.21,8-3.14,12.06s-1.77,8.12-2.44,12.22c-.33,2-.62,4.11-.84,6.17q-.16,1.55-.27,3.1l-.1,1.56-.06.78a3.92,3.92,0,0,1-.05.39.83.83,0,0,1-.06.2A.17.17,0,0,1,130.22,393.53Zm0-.09c.08,0,.12-.1.15-.22s0-.25,0-.38l.05-.78.09-1.56q.1-1.56.26-3.11c.21-2.07.48-4.13.81-6.18.64-4.11,1.46-8.19,2.37-12.24s1.92-8.09,3-12.1a43.17,43.17,0,0,0,1.81-12.28,76.35,76.35,0,0,0-3.66-24.53,72.72,72.72,0,0,0-11.42-22l.17-.06a47.51,47.51,0,0,1-2.88,13.56,136.15,136.15,0,0,1-5.43,12.78c-3.92,8.36-8.28,16.61-10.69,25.57a37,37,0,0,0-1.21,13.72,28.12,28.12,0,0,0,5,12.77,44.06,44.06,0,0,0,9.75,9.77A83.49,83.49,0,0,0,130.26,393.44Z"/><path class="cls-23" d="M139.17,369.38c-34.56-32,21.77-45.84,29.16-68.65,7.77,19.58-12.44,36.29-15.86,42C139.8,363.8,139.75,369.81,139.17,369.38Z"/><path d="M139.14,369.42a48,48,0,0,1-7.31-8.25,21.65,21.65,0,0,1-3.91-10.26,18.45,18.45,0,0,1,2.58-10.7,41.85,41.85,0,0,1,6.9-8.71c5.26-5.22,11.1-9.74,16.67-14.49a79.23,79.23,0,0,0,7.87-7.55,27.41,27.41,0,0,0,5.57-9l.79-2.3.85,2.25a25.69,25.69,0,0,1,1.76,9.78,28.78,28.78,0,0,1-2,9.69c-2.42,6.16-6.39,11.45-10.6,16.33l-3.18,3.64a24.41,24.41,0,0,0-2.88,3.81c-1.69,2.74-3.36,5.5-4.92,8.32s-3,5.68-4.41,8.6c-.68,1.46-1.33,2.93-1.93,4.43q-.45,1.12-.86,2.26l-.4,1.14-.21.57c0,.09-.07.19-.12.28a.69.69,0,0,1-.09.14A.14.14,0,0,1,139.14,369.42Zm.06-.08s.09,0,.14-.13.08-.18.11-.27l.2-.57.39-1.14q.4-1.14.84-2.27c.59-1.5,1.23-3,1.9-4.45,1.35-2.93,2.82-5.8,4.35-8.64s3.14-5.63,4.79-8.4a24.66,24.66,0,0,1,2.86-3.91l3.13-3.69c4.12-4.93,8-10.23,10.23-16.28a28.22,28.22,0,0,0,1.84-9.41,24.75,24.75,0,0,0-1.75-9.41h.18a27.08,27.08,0,0,1-5.78,9.34,80.15,80.15,0,0,1-8,7.59c-5.61,4.75-11.55,9.12-16.83,14.23a41.36,41.36,0,0,0-6.95,8.49,18.06,18.06,0,0,0-2.7,10.48A21.45,21.45,0,0,0,132,361.08,47.92,47.92,0,0,0,139.21,369.35Z"/><path class="cls-24" d="M283.54,47"/><path class="cls-25" d="M424.2,103.46"/></g></g></svg>